<svg width="24" height="24" viewBox="0 0 24 24" fill="none" xmlns="http://www.w3.org/2000/svg">
<path d="M24.0002 12.2666C24.0002 11.28 23.9185 10.56 23.7417 9.81335H12.2451V14.2666H18.9934C18.8574 15.3733 18.1227 17.04 16.49 18.1599L16.4671 18.309L20.1021 21.0686L20.354 21.0933C22.6668 18.9999 24.0002 15.9199 24.0002 12.2666Z" fill="#4285F4"/>
<path d="M12.2454 23.9998C15.5515 23.9998 18.327 22.9331 20.3543 21.0932L16.4903 18.1598C15.4563 18.8665 14.0685 19.3598 12.2454 19.3598C9.00737 19.3598 6.25909 17.2665 5.27941 14.3732L5.13581 14.3852L1.35607 17.2518L1.30664 17.3865C3.32023 21.3064 7.45629 23.9998 12.2454 23.9998Z" fill="#34A853"/>
<path d="M5.27886 14.3732C5.02036 13.6266 4.87076 12.8265 4.87076 11.9999C4.87076 11.1732 5.02036 10.3732 5.26526 9.62659L5.25841 9.46757L1.43131 6.55487L1.30609 6.61324C0.476196 8.23991 0 10.0666 0 11.9999C0 13.9332 0.476196 15.7598 1.30609 17.3865L5.27886 14.3732Z" fill="#FBBC05"/>
<path d="M12.2452 4.63993C14.5445 4.63993 16.0955 5.61325 16.9799 6.42664L20.4356 3.11998C18.3133 1.18666 15.5513 0 12.2452 0C7.45605 0 3.31998 2.69329 1.3064 6.61323L5.26556 9.62658C6.25885 6.73328 9.00713 4.63993 12.2452 4.63993Z" fill="#EB4335"/>
</svg>
